<svg xmlns="http://www.w3.org/2000/svg" xmlns:xlink="http://www.w3.org/1999/xlink" width="294.397" height="296.936" viewBox="0 0 294.397 296.936">
  <defs>
    <filter id="fa" x="134.397" y="47" width="82" height="101" filterUnits="userSpaceOnUse">
      <feOffset dy="3" input="SourceAlpha"/>
      <feGaussianBlur stdDeviation="3" result="blur"/>
      <feFlood flood-opacity="0.161"/>
      <feComposite operator="in" in2="blur"/>
      <feComposite in="SourceGraphic"/>
    </filter>
    <filter id="ROOMS" x="55.397" y="124" width="239" height="106" filterUnits="userSpaceOnUse">
      <feOffset dy="3" input="SourceAlpha"/>
      <feGaussianBlur stdDeviation="3" result="blur-2"/>
      <feFlood flood-color="#668296" flood-opacity="0.404"/>
      <feComposite operator="in" in2="blur-2"/>
      <feComposite in="SourceGraphic"/>
    </filter>
  </defs>
  <g id="Group_15" data-name="Group 15" transform="translate(-143.603 -2172)">
    <path id="Union_1" data-name="Union 1" d="M87.795,239.479a122.2,122.2,0,1,1,62.371,1.692c-9.409,15.464-20.2,33.839-32.566,55.765C106.259,274.226,96.389,255.312,87.795,239.479Z" transform="translate(143.603 2172)" fill="#49a0ae"/>
    <g id="Group_14" data-name="Group 14" transform="translate(-180.094 -131)">
      <path id="Path_572" data-name="Path 572" d="M59.6,37.176,49.548,100.781l-2.441.038L57.184,36.924Z" transform="translate(345.374 2328.145)" fill="#f9ab60" fill-rule="evenodd"/>
      <path id="Path_573" data-name="Path 573" d="M59.372,19.956C78.232,21.911,90.58,44.573,90.58,44.573,85.245,40.679,74.9,39.6,69.295,42.364a39.128,39.128,0,0,0-12-3.386,31.211,31.211,0,0,0-11.608.939c-4.377-3.8-14.418-5.141-21.006-2.18C24.684,37.736,40.514,18,59.372,19.956Z" transform="translate(345.934 2328.572)" fill="#a6d0ee" fill-rule="evenodd"/>
      <path id="Path_574" data-name="Path 574" d="M59.468,19.97c19.406,2.012,32.034,26.1,32.034,26.1-5.476-4.128-16.125-5.231-21.9-2.272A38.988,38.988,0,0,0,57.263,40.24a31.119,31.119,0,0,0-11.953,1.041c-4.492-4.026-14.822-5.422-21.616-2.244C23.7,39.037,40.064,17.954,59.468,19.97Z" transform="translate(345.959 2328.572)" fill="#b1d8f2" fill-rule="evenodd"/>
      <path id="Path_575" data-name="Path 575" d="M59.91,19.959c6.334,0,9.923,22.408,9.923,22.408a39.128,39.128,0,0,0-12-3.386,31.211,31.211,0,0,0-11.608.939S53.577,19.959,59.91,19.959Z" transform="translate(345.396 2328.569)" fill="#d1e8f8" fill-rule="evenodd"/>
      <path id="Path_576" data-name="Path 576" d="M59.47,103.343c0,1.569-1.272,1.327-2.841,1.327H39.961c-1.569,0-2.841.242-2.841-1.327v-1.514a2.842,2.842,0,0,1,2.841-2.841H56.629a2.842,2.842,0,0,1,2.841,2.841v1.514Z" transform="translate(345.624 2326.596)" fill="#b17b48" fill-rule="evenodd"/>
      <path id="Path_577" data-name="Path 577" d="M83.284,99.6a.793.793,0,0,1-.762-.575l-4.245-14.78a.794.794,0,1,1,1.526-.438l4.245,14.78a.8.8,0,0,1-.544.983A.784.784,0,0,1,83.284,99.6Z" transform="translate(344.597 2326.989)" fill="#996b39"/>
      <path id="Path_578" data-name="Path 578" d="M60.058,111.937a.778.778,0,0,1-.435-.132.793.793,0,0,1-.227-1.1l32.1-48.854a.794.794,0,1,1,1.327.873l-32.1,48.854A.8.8,0,0,1,60.058,111.937Z" transform="translate(345.071 2327.532)" fill="#e3b071"/>
      <path id="Path_579" data-name="Path 579" d="M105.85,105.064a.793.793,0,0,1-.757-.556L92.029,62.742a.794.794,0,0,1,1.515-.475l13.063,41.765a.8.8,0,0,1-.521,1A.775.775,0,0,1,105.85,105.064Z" transform="translate(344.254 2327.527)" fill="#996b39"/>
      <path id="Path_580" data-name="Path 580" d="M107.532,106.554a.823.823,0,0,1-.2-.024l-24.681-6.391a.794.794,0,1,1,.4-1.537l24.681,6.391a.793.793,0,0,1-.2,1.561Z" transform="translate(344.502 2326.606)" fill="#996b39"/>
      <path id="Path_581" data-name="Path 581" d="M105.59,106a.758.758,0,0,1-.174-.019l-23.282-5.2a.793.793,0,1,1,.346-1.548l23.282,5.2a.795.795,0,0,1-.173,1.57Z" transform="translate(344.515 2326.591)" fill="#aa7243"/>
      <path id="Path_582" data-name="Path 582" d="M85.1,118.312a.831.831,0,0,1-.2-.024L60.221,111.9a.794.794,0,1,1,.4-1.537L85.3,116.751a.793.793,0,0,1-.2,1.561Z" transform="translate(345.062 2326.313)" fill="#b17b48"/>
      <path id="Path_583" data-name="Path 583" d="M83.168,101.012a.776.776,0,0,1-.193-.024L60.047,95.255a.793.793,0,1,1,.385-1.539L83.36,99.449a.793.793,0,0,1-.192,1.563Z" transform="translate(345.066 2326.728)" fill="#b17b48"/>
      <path id="Path_584" data-name="Path 584" d="M90.992,63.664C84.222,92.3,71.154,94.757,64.62,94.01L60.7,93.031l-.4,1.586,20.592,5.159.97-1.455,13.493,3.131c15.086-4.024,18.122-35.143,18.122-35.143Z" transform="translate(345.045 2327.478)" fill="#d1e8f8"/>
      <path id="Path_585" data-name="Path 585" d="M78.122,98.949l3.219.881.97-1.455L95.8,101.507c15.086-4.024,18.122-35.143,18.122-35.143l-4.981-.528C108.281,105.7,78.122,98.949,78.122,98.949Z" transform="translate(344.6 2327.423)" fill="#a6d0ee"/>
      <path id="Path_586" data-name="Path 586" d="M90.992,63.664C84.222,92.3,71.154,94.757,64.62,94.01L60.7,93.031l-.4,1.586,4.939,1.191S87.13,101.6,95.4,64.193Z" transform="translate(345.045 2327.478)" fill="#a6d0ee"/>
      <path id="Path_587" data-name="Path 587" d="M84.658,118.9a.794.794,0,0,1-.688-1.188L113.953,65.33a.794.794,0,0,1,1.378.788L85.347,118.5A.791.791,0,0,1,84.658,118.9Z" transform="translate(344.457 2327.446)" fill="#e3b071"/>
      <path id="Path_588" data-name="Path 588" d="M100.2,64.8l4.5.486s-1.675,34.038-30.071,32.805l-4.057-.969S97.157,97.468,100.2,64.8Z" transform="translate(344.789 2327.449)" fill="#a6d0ee"/>
    </g>
    <g transform="matrix(1, 0, 0, 1, 143.6, 2172)" filter="url(#fa)">
      <text id="fa-2" data-name="fa" transform="translate(143.4 121)" fill="#d1e8f8" font-size="70" font-family="HelveticaNeue-Bold, Helvetica Neue" font-weight="700"><tspan x="0" y="0">fa</tspan></text>
    </g>
    <g transform="matrix(1, 0, 0, 1, 143.6, 2172)" filter="url(#ROOMS)">
      <text id="ROOMS-2" data-name="ROOMS" transform="translate(64.4 203)" fill="#d1e8f8" font-size="72" font-family="Impact" letter-spacing="0.05em"><tspan x="0" y="0">ROOMS</tspan></text>
    </g>
  </g>
</svg>
